<svg width="238" height="156" viewBox="0 0 238 156" fill="none" xmlns="http://www.w3.org/2000/svg">
<path d="M52.1282 140.332C52.1282 152.956 44.9776 155.19 36.1562 155.19H31.7642C22.9429 155.19 15.7922 152.956 15.7922 140.332V90.2896C15.7922 77.6642 22.9429 67.4322 31.7642 67.4322H36.1562C44.9776 67.4322 52.1282 77.6642 52.1282 90.2896V140.332Z" fill="#292A2D"/>
<path d="M227.204 140.332C227.204 152.956 220.055 155.19 211.232 155.19H206.84C198.019 155.19 190.868 152.956 190.868 140.332V90.2896C190.868 77.6642 198.019 67.4322 206.84 67.4322H211.232C220.055 67.4322 227.204 77.6642 227.204 90.2896V140.332Z" fill="#292A2D"/>
<path d="M24.4585 73.1464H220.085V137.718H24.4585V73.1464Z" fill="#292A2D"/>
<path d="M44.4594 121.758C44.4594 126.019 41.0047 129.473 36.7447 129.473C32.4847 129.473 29.03 126.019 29.03 121.758C29.03 117.498 32.4847 114.043 36.7447 114.043C41.0047 114.043 44.4594 117.498 44.4594 121.758Z" fill="white"/>
<path d="M45.0297 87.281C45.0297 90.2783 42.599 92.709 39.6017 92.709C36.6057 92.709 34.175 90.2783 34.175 87.281C34.175 84.2837 36.6057 81.853 39.6017 81.853C42.599 81.853 45.0297 84.2837 45.0297 87.281Z" fill="#F0AD1C"/>
<path d="M42.0621 87.281C42.0621 88.6396 40.9608 89.741 39.6021 89.741C38.2434 89.741 37.1421 88.6396 37.1421 87.281C37.1421 85.9223 38.2434 84.821 39.6021 84.821C40.9608 84.821 42.0621 85.9223 42.0621 87.281Z" fill="white"/>
<path d="M209.036 87.281C209.036 90.2783 206.605 92.709 203.609 92.709C200.612 92.709 198.181 90.2783 198.181 87.281C198.181 84.2837 200.612 81.853 203.609 81.853C206.605 81.853 209.036 84.2837 209.036 87.281Z" fill="#F0AD1C"/>
<path d="M213.61 121.377C213.61 125.637 210.156 129.092 205.895 129.092C201.635 129.092 198.182 125.637 198.182 121.377C198.182 117.117 201.635 113.662 205.895 113.662C210.156 113.662 213.61 117.117 213.61 121.377Z" fill="white"/>
<path d="M206.069 87.281C206.069 88.6396 204.967 89.741 203.609 89.741C202.251 89.741 201.149 88.6396 201.149 87.281C201.149 85.9223 202.251 84.821 203.609 84.821C204.967 84.821 206.069 85.9223 206.069 87.281Z" fill="white"/>
<path d="M208.337 134.387H183.43C183.43 134.387 168.716 136.149 168.716 119.339H217.289C217.289 119.339 215.766 134.387 208.337 134.387ZM161.47 104.957H81.6717C79.6397 96.776 78.5343 88.5333 81.569 86.48C88.0463 82.0973 121.57 82.48 121.57 82.48C121.57 82.48 155.096 82.0973 161.573 86.48C164.606 88.5333 163.502 96.776 161.47 104.957ZM155.668 123.435C155.668 123.435 154.336 130.481 143.668 130.481H121.57H99.4743C88.8063 130.481 87.473 123.435 87.473 123.435C87.473 123.435 87.0063 122.2 86.3023 120.195H156.84C156.136 122.2 155.668 123.435 155.668 123.435ZM65.4743 134.387H40.5677C40.5677 134.387 25.853 136.149 25.853 119.339H74.4263C74.4263 119.339 72.9023 134.387 65.4743 134.387ZM29.6037 79.432C29.6037 79.432 47.8903 80.004 56.8903 83.1467C65.8917 86.2893 67.0343 98.8613 67.0343 98.8613C67.0343 98.8613 54.177 98.0053 41.033 96.148C27.8903 94.2907 29.6037 79.432 29.6037 79.432ZM47.657 38.764L52.469 25.9053C57.2797 13.048 63.789 12.1907 75.3943 10.7627C86.997 9.33333 121.881 8.76266 121.881 8.76266C121.881 8.76266 156.765 9.33333 168.368 10.7627C179.973 12.1907 186.482 13.048 191.293 25.9053L196.105 38.764C196.105 38.764 200.35 50.4787 186.482 50.4787H121.881H57.2797C43.4117 50.4787 47.657 38.764 47.657 38.764ZM213.538 79.432C213.538 79.432 215.253 94.2907 202.109 96.148C188.965 98.0053 176.108 98.8613 176.108 98.8613C176.108 98.8613 177.25 86.2893 186.25 83.1467C195.252 80.004 213.538 79.432 213.538 79.432ZM237.193 47.4733C237.193 38.372 227.668 39.62 227.668 39.62H221.574C212.466 39.62 210.92 47.4067 210.909 47.468C208.436 40.3333 198.336 12.4947 189.384 6.85733C179.097 0.381329 121.57 -1.45284e-06 121.57 -1.45284e-06C121.57 -1.45284e-06 64.0437 0.381329 53.7583 6.85733C44.805 12.4947 34.6997 40.348 32.2317 47.4733H27.089C27.089 47.4733 25.5663 39.62 16.4223 39.62H10.3277C10.3277 39.62 0.802338 38.372 0.802338 47.4733C0.802338 47.4733 -1.29366 56.0027 5.94634 56.0027H23.4583C18.7343 60.8027 14.5183 67.4493 14.5183 78.0987V120.767C14.5183 120.767 10.517 146.292 48.425 146.292H121.57H194.717C232.624 146.292 228.624 120.767 228.624 120.767V78.0987C228.624 67.4493 224.406 60.8027 219.684 56.0027H232.05C238.1 56.0027 237.193 47.4733 237.193 47.4733Z" fill="#00519B"/>
<mask id="mask0_4023_4516" style="mask-type:luminance" maskUnits="userSpaceOnUse" x="14" y="120" width="215" height="27">
<path d="M14.397 120.766H228.729V146.292H14.397V120.766Z" fill="white"/>
</mask>
<g mask="url(#mask0_4023_4516)">
<path d="M228.608 120.766C228.608 120.766 220.704 140.332 190.999 140.332H121.881H121.245H52.1279C22.4226 140.332 14.5185 120.766 14.5185 120.766C14.5185 120.766 10.5172 146.292 48.4252 146.292H121.245H121.556H121.571H121.881H194.701C232.608 146.292 228.608 120.766 228.608 120.766Z" fill="url(#paint0_linear_4023_4516)"/>
</g>
<mask id="mask1_4023_4516" style="mask-type:luminance" maskUnits="userSpaceOnUse" x="38" y="42" width="168" height="42">
<path d="M38.4255 42.7864H205.727V83.5024H38.4255V42.7864Z" fill="white"/>
</mask>
<g mask="url(#mask1_4023_4516)">
<g opacity="0.5">
<path d="M205.331 52.6291C204.109 48.5945 202.95 44.4558 202.766 42.7864C202.682 45.9411 200.725 49.9424 191.308 49.9424H122.076H52.8438C43.4265 49.9424 41.4692 45.9411 41.3852 42.7864C41.2012 44.4558 40.0425 48.5945 38.8212 52.6291C37.5932 56.6918 39.2892 61.0425 43.0038 63.3078C55.0105 70.6251 78.0372 84.5704 80.0545 83.4371C86.1105 80.0344 113.256 79.7198 122.076 79.7078C130.896 79.7198 158.041 80.0344 164.097 83.4371C166.114 84.5704 189.141 70.6251 201.148 63.3078C204.862 61.0425 206.559 56.6918 205.331 52.6291Z" fill="url(#paint1_linear_4023_4516)"/>
</g>
</g>
<path d="M121.881 50.3844H191.502C206.448 50.3844 201.872 37.7591 201.872 37.7591L196.686 23.9031C191.502 10.0457 184.486 9.12173 171.98 7.58307C159.476 6.04307 121.881 5.42707 121.881 5.42707C121.881 5.42707 84.2863 6.04307 71.7823 7.58307C59.2756 9.12173 52.2596 10.0457 47.0756 23.9031L41.8903 37.7591C41.8903 37.7591 37.3143 50.3844 52.2596 50.3844H121.881Z" fill="#66CCDB"/>
<mask id="mask2_4023_4516" style="mask-type:luminance" maskUnits="userSpaceOnUse" x="45" y="8" width="88" height="40">
<path d="M45.4771 8.2957H132.427V47.613H45.4771V8.2957Z" fill="white"/>
</mask>
<g mask="url(#mask2_4023_4516)">
<g opacity="0.5">
<path d="M111.258 8.29558C101.65 8.50492 80.6003 9.06225 72.2616 10.0889C61.2976 11.4382 55.1469 12.2476 50.6016 24.3969L46.0563 36.5449C46.0563 36.5449 42.0443 47.6129 55.1469 47.6129H116.184H132.427L111.258 8.29558Z" fill="white"/>
</g>
</g>
<defs>
<linearGradient id="paint0_linear_4023_4516" x1="121.563" y1="146.292" x2="121.563" y2="120.767" gradientUnits="userSpaceOnUse">
<stop stop-color="white"/>
<stop offset="0.745996" stop-color="#0F5A91"/>
<stop offset="1" stop-color="#0F5A91"/>
</linearGradient>
<linearGradient id="paint1_linear_4023_4516" x1="122.076" y1="83.5021" x2="122.076" y2="42.786" gradientUnits="userSpaceOnUse">
<stop stop-color="#0D97D3"/>
<stop offset="1" stop-color="#231F20"/>
</linearGradient>
</defs>
</svg>
